Exact Audio Copy V0.99 prebeta 1 from 25. May 2007

EAC 抓取日志文件从27. 十一月 2010, 21:54

殷秀梅 / 20世纪中华歌坛名人百集珍藏版

使用驱动器  ：BENQ    DVD-ROM 16X   Adapter: 0  ID: 1

读取模式     : 保护
使用精确流   : 是
废除音频缓冲 : 是
使用 C2 指针 : 否

读取偏移校正                   : 738
读取 Lead-In 和 Lead-Out       : 否
用静音填充抓取中丢失偏移的采样 : 是
去除首尾静音块                 : 否
已用接口                       : Win NT 及 2000 本地 Win32 接口

所用输出格式 : 内部 WAV 函数
样本格式     : 44.100 Hz;16 Bit;立体声


被抓轨 CD 的 TOC

     音轨 |   开始   |   长度   | 起始扇区 | 结尾扇区 
    --------------------------------------------------
       1  |  0:00.00 |  2:56.10 |       0  |   13209  
       2  |  2:56.10 |  3:42.67 |   13210  |   29926  
       3  |  6:39.02 |  3:55.65 |   29927  |   47616  
       4  | 10:34.67 |  3:19.43 |   47617  |   62584  
       5  | 13:54.35 |  4:57.52 |   62585  |   84911  
       6  | 18:52.12 |  2:33.50 |   84912  |   96436  
       7  | 21:25.62 |  4:15.58 |   96437  |  115619  
       8  | 25:41.45 |  3:06.67 |  115620  |  129636  
       9  | 28:48.37 |  3:24.15 |  129637  |  144951  
      10  | 32:12.52 |  2:53.73 |  144952  |  157999  
      11  | 35:06.50 |  1:49.65 |  158000  |  166239  
      12  | 36:56.40 |  2:42.67 |  166240  |  178456  
      13  | 39:39.32 |  4:02.15 |  178457  |  196621  
      14  | 43:41.47 |  3:20.70 |  196622  |  211691  
      15  | 47:02.42 |  3:21.70 |  211692  |  226836  
      16  | 50:24.37 |  3:02.63 |  226837  |  240549  
      17  | 53:27.25 |  2:54.07 |  240550  |  253606  


范围状态及错误

已选择范围

     文件名 E:\文件夹\20世纪中华歌坛名人百集珍藏版-殷秀梅[lwg188原创]\殷秀梅 - 20世纪中华歌坛名人百集珍藏版.wav

     峰值电平 100.0 %
     范围质量 99.9 %
     复制 CRC F1161471
     复制成功

没有错误发生

状态报告结尾
